# xmcd CD database file
#
# Track frame offsets:
#	225
#	12519
#	27089
#	36585
#	50510
#	66737
#	82379
#	94260
#	105586
#	116825
#	129125
#	137504
#	150169
#	163795
#	175020
#
# Disc length: 2521 seconds
#
# Revision: 0
# Processed by: cddbd v1.5.2PL0 Copyright (c) Steve Scherf et al.
# Submitted via: CDex 1.70beta2
#
DISCID=cb09d60f
DTITLE=Various Artist - Zlaté trampslé časy
DYEAR=1900
DGENRE=Country
TTITLE0=Buráky
TTITLE1=Píseň, co mě učil listopad
TTITLE2=Ruty šuty
TTITLE3=Tom Dooley
TTITLE4=Paroplavecká
TTITLE5=Píseň o nose
TTITLE6=Kačák
TTITLE7=Dál, dál, dál
TTITLE8=Kabaléro
TTITLE9=Trampe kamaráde
TTITLE10=Ó luno má
TTITLE11=Třeseme se v lese
TTITLE12=Nad námi vlajka hvězdnatá
TTITLE13=Zrádný banjo
TTITLE14=Sluníčko zlaté až zazáří
EXTD=
EXTT0=
EXTT1=
EXTT2=
EXTT3=
EXTT4=
EXTT5=
EXTT6=
EXTT7=
EXTT8=
EXTT9=
EXTT10=
EXTT11=
EXTT12=
EXTT13=
EXTT14=
PLAYORDER=
